<svg width="12" height="12" viewBox="0 0 12 12" fill="none" xmlns="http://www.w3.org/2000/svg">
<path d="M3.5 4.99998V8.49998" stroke="#34446F" stroke-width="0.75" stroke-linecap="round" stroke-linejoin="round"/>
<path d="M5.5 6.49998V8.49998M5.5 6.49998C5.5 5.67153 6.17155 4.99998 7 4.99998C7.82845 4.99998 8.5 5.67153 8.5 6.49998V8.49998M5.5 6.49998V4.99998" stroke="#34446F" stroke-width="0.75" stroke-linecap="round" stroke-linejoin="round"/>
<path d="M3.50384 3.49998H3.49951" stroke="#34446F" stroke-linecap="round" stroke-linejoin="round"/>
<path d="M1.25 5.99998C1.25 3.76081 1.25 2.64122 1.94562 1.9456C2.64124 1.24998 3.76083 1.24998 6 1.24998C8.23915 1.24998 9.35875 1.24998 10.0544 1.9456C10.75 2.64122 10.75 3.76081 10.75 5.99998C10.75 8.23913 10.75 9.35873 10.0544 10.0544C9.35875 10.75 8.23915 10.75 6 10.75C3.76083 10.75 2.64124 10.75 1.94562 10.0544C1.25 9.35873 1.25 8.23913 1.25 5.99998Z" stroke="#34446F" stroke-width="0.75" stroke-linejoin="round"/>
</svg>
