<svg width="14" height="12" viewBox="0 0 14 12" fill="none" xmlns="http://www.w3.org/2000/svg">
<path d="M11.4333 6.66667H4C3.81111 6.66667 3.65278 6.60278 3.525 6.475C3.39722 6.34722 3.33333 6.18889 3.33333 6C3.33333 5.81111 3.39722 5.65278 3.525 5.525C3.65278 5.39722 3.81111 5.33333 4 5.33333H11.4333L10.8667 4.76667C10.7333 4.63333 10.6694 4.47778 10.675 4.3C10.6806 4.12222 10.7444 3.96667 10.8667 3.83333C11 3.7 11.1583 3.63056 11.3417 3.625C11.525 3.61944 11.6833 3.68333 11.8167 3.81667L13.5333 5.53333C13.6667 5.66667 13.7333 5.82222 13.7333 6C13.7333 6.17778 13.6667 6.33333 13.5333 6.46667L11.8167 8.18333C11.6833 8.31667 11.525 8.38056 11.3417 8.375C11.1583 8.36944 11 8.3 10.8667 8.16667C10.7444 8.03333 10.6806 7.87778 10.675 7.7C10.6694 7.52222 10.7333 7.36667 10.8667 7.23333L11.4333 6.66667ZM8 3.33333V1.33333H1.33333V10.6667H8V8.66667C8 8.47778 8.06389 8.31944 8.19167 8.19167C8.31944 8.06389 8.47778 8 8.66667 8C8.85556 8 9.01389 8.06389 9.14167 8.19167C9.26945 8.31944 9.33333 8.47778 9.33333 8.66667V10.6667C9.33333 11.0333 9.20278 11.3472 8.94167 11.6083C8.68056 11.8694 8.36667 12 8 12H1.33333C0.966667 12 0.652778 11.8694 0.391667 11.6083C0.130556 11.3472 0 11.0333 0 10.6667V1.33333C0 0.966667 0.130556 0.652778 0.391667 0.391667C0.652778 0.130556 0.966667 0 1.33333 0H8C8.36667 0 8.68056 0.130556 8.94167 0.391667C9.20278 0.652778 9.33333 0.966667 9.33333 1.33333V3.33333C9.33333 3.52222 9.26945 3.68056 9.14167 3.80833C9.01389 3.93611 8.85556 4 8.66667 4C8.47778 4 8.31944 3.93611 8.19167 3.80833C8.06389 3.68056 8 3.52222 8 3.33333Z" fill="#5C5D5B"/>
</svg>
