<svg width="20" height="20" viewBox="0 0 20 20" fill="none" xmlns="http://www.w3.org/2000/svg">
<path d="M18.3332 9.16668C18.3332 8.75718 18.3288 8.34768 18.32 7.937C18.2656 5.38239 18.2383 4.10509 17.2958 3.15889C16.3531 2.2127 15.0413 2.17974 12.4175 2.11382C10.8004 2.07319 9.19926 2.07319 7.58219 2.11381C4.95845 2.17973 3.64657 2.21269 2.70396 3.15889C1.76135 4.10508 1.73412 5.38239 1.67964 7.93699C1.66212 8.75843 1.66213 9.57493 1.67965 10.3963C1.73412 12.951 1.76136 14.2283 2.70397 15.1745C3.64657 16.1207 4.95845 16.1536 7.5822 16.2195C8.39076 16.2398 9.19526 16.25 9.99984 16.25" stroke="#E64233" stroke-width="1.5" stroke-linecap="round" stroke-linejoin="round"/>
<path d="M5.83301 6.25L8.28469 7.69953C9.71402 8.54458 10.2853 8.54458 11.7147 7.69953L14.1664 6.25" stroke="#E64233" stroke-width="1.5" stroke-linecap="round" stroke-linejoin="round"/>
<path d="M18.3335 17.9169C18.2368 15.8132 18.3225 15.0477 16.9533 14.0661C16.2803 13.5836 14.9263 13.2657 13.0982 13.4373M14.5433 11.3273L12.6294 13.122C12.4677 13.2838 12.4665 13.5467 12.6267 13.7101L14.5433 15.5334" stroke="#E64233" stroke-width="1.5" stroke-linecap="round" stroke-linejoin="round"/>
</svg>
