<svg width="13" height="13" viewBox="0 0 13 13" fill="none" xmlns="http://www.w3.org/2000/svg">
<path d="M6.39896 7.1708C5.39886 7.1708 4.57422 6.3637 4.59177 5.34606C4.59177 4.34596 5.39886 3.52132 6.39896 3.52132C7.39905 3.52132 8.2237 4.34596 8.2237 5.34606C8.2237 6.3637 7.4166 7.1708 6.39896 7.1708ZM7.27624 7.73225C8.66233 7.73225 9.78525 8.78499 9.78525 10.0834C9.78525 10.3465 9.55716 10.5395 9.27643 10.5395H3.53903C3.25831 10.5395 3.04776 10.3465 3.04776 10.0834C3.04776 8.78499 4.15313 7.73225 5.53923 7.73225H7.27624ZM9.78525 4.36351C8.9957 4.36351 8.38161 3.74941 8.38161 2.95987C8.38161 2.18786 8.9957 1.55622 9.78525 1.55622C10.5573 1.55622 11.1889 2.18786 11.1889 2.95987C11.1889 3.74941 10.5573 4.36351 9.78525 4.36351ZM4.01276 5.34606C4.01276 5.94261 4.24086 6.48652 4.60931 6.89007H1.1002C0.924748 6.89007 0.801929 6.7497 0.801929 6.57425C0.801929 5.66188 1.48621 4.92497 2.34594 4.92497H3.41622C3.64431 4.92497 3.85485 4.9776 4.04786 5.08288C4.03031 5.1706 4.01276 5.25833 4.01276 5.34606ZM3.04776 4.36351C2.25821 4.36351 1.64412 3.74941 1.64412 2.95987C1.64412 2.18786 2.25821 1.55622 3.04776 1.55622C3.81976 1.55622 4.4514 2.18786 4.4514 2.95987C4.4514 3.74941 3.81976 4.36351 3.04776 4.36351ZM10.4695 4.92497C11.3293 4.92497 12.0311 5.66188 12.0311 6.57425C12.0311 6.7497 11.8907 6.89007 11.7153 6.89007H8.20615C8.57461 6.48652 8.78515 5.94261 8.78515 5.34606C8.78515 5.25833 8.76761 5.1706 8.76761 5.08288C8.96061 4.99515 9.17115 4.92497 9.39925 4.92497H10.4695Z" fill="#878790"/>
</svg>
